<?xml version="1.0" encoding="utf-8"?>
<svg xmlns="http://www.w3.org/2000/svg" viewBox="9.8901 61.0419 480.6417 378.2483" width="480.642px" height="378.248px" preserveAspectRatio="none"><g id="object-3" style="" transform="matrix(2.7356860637664795, 0, 0, 2.7356860637664795, -332.73370361328125, -403.46136474609375)"><title>Logo CorpoSostenibile</title><path style="stroke: rgb(0, 0, 0); fill-rule: nonzero; stroke-width: 0px; fill: rgb(143, 191, 100);" d="M 196.113 255.585 C 213.23 165.192 296.952 168.979 300.297 170.188 C 304.554 171.726 289.451 254.379 196.113 255.585 Z" id="object-0"><title>foglia_destra</title></path><path style="stroke: rgb(0, 0, 0); fill: rgb(130, 178, 85); stroke-width: 0px;" d="M 196.142 255.592 C 211.483 255.249 224.138 253.476 241.936 246.915 C 241.936 246.915 215.369 264.688 204.68 307.662 C 203.689 311.648 193.734 284.964 196.142 255.592 Z" id="object-1"><title>foglia_basso</title></path><path style="stroke-width: 0px; stroke: rgb(0, 0, 0); fill: rgb(188, 229, 135);" d="M 202.612 232.444 C 182.011 209.662 156.081 202.679 125.664 214.467 C 120.431 216.495 165.053 257.094 196.116 255.597 C 196.116 255.597 198.03 244.385 202.612 232.444 Z" id="object-2"><title>foglia_sinistra</title></path></g></svg>